<svg xmlns="http://www.w3.org/2000/svg" xml:space="preserve" width="800" height="800" style="fill-rule:evenodd;clip-rule:evenodd;stroke-linejoin:round;stroke-miterlimit:2" viewBox="0 0 32 32"><path d="M390 351.417c-1.765-1.081-3-3.549-3-6.417 0-3.863 2.24-7 5-7s5 3.137 5 7c0 2.868-1.235 5.336-3 6.417v12.616a1.967 1.967 0 0 1-1.967 1.967h-.066a1.967 1.967 0 0 1-1.967-1.967v-12.616Z" style="fill:#90e0ef" transform="translate(-383 -336)"/><path d="M404 351v13.033c0 1.086.881 1.967 1.967 1.967h.066a1.967 1.967 0 0 0 1.967-1.967V351h.002a2.002 2.002 0 0 0 1.998-1.998V343h-8v6a2 2 0 0 0 2 2Z" style="fill:#90e0ef" transform="translate(-382 -336)"/><path d="M390 351.94v12.093a2.967 2.967 0 0 0 2.967 2.967h.066a2.967 2.967 0 0 0 2.967-2.967V351.94c1.759-1.354 3-3.941 3-6.94 0-2.608-.935-4.913-2.332-6.346-1.025-1.053-2.3-1.654-3.668-1.654-1.368 0-2.643.601-3.668 1.654-1.397 1.433-2.332 3.738-2.332 6.346 0 2.998 1.241 5.586 3 6.94Zm4 8.06v4.033a.967.967 0 0 1-.967.967h-.066a.967.967 0 0 1-.967-.967V360h2Zm0-2h-2v-6.583a1 1 0 0 0-.478-.853C390 349.632 389 347.474 389 345c0-2.028.678-3.836 1.764-4.951.63-.646 1.396-1.049 2.236-1.049.84 0 1.606.403 2.236 1.049 1.086 1.115 1.764 2.923 1.764 4.951 0 2.474-1 4.632-2.522 5.564a1 1 0 0 0-.478.853V358ZM405 351.829v12.204a2.967 2.967 0 0 0 2.967 2.967h.066a2.967 2.967 0 0 0 2.967-2.967v-12.204a2.999 2.999 0 0 0 2-2.827V338a1 1 0 0 0-2 0v4h-2v-4a1 1 0 0 0-2 0v4h-2v-4a1 1 0 0 0-2 0v11a3 3 0 0 0 2 2.829Zm4 8.171h-2v4.033c0 .534.433.967.967.967h.066a.967.967 0 0 0 .967-.967V360Zm0-2v-6.732c0-.648.483-1.195 1.126-1.275l.001-.001a1 1 0 0 0 .873-.99v-5l-6-.002v5c0 .487.348.892.808.982.692.134 1.192.74 1.192 1.445V358h2Z" style="fill:#1990a7" transform="translate(-384 -336)"/></svg>