<svg xmlns="http://www.w3.org/2000/svg" xml:space="preserve" width="800" height="800" viewBox="0 0 512 512"><path d="M257 0C115.617 0 1 114.617 1 256s114.617 256 256 256 256-114.617 256-256S398.383 0 257 0" style="fill:#d13834" transform="translate(-1)"/><path d="M291.576 277.5c3.505 3.39 3.602 8.978.221 12.482-3.39 3.505-8.978 3.602-12.482.221-3.513-3.39-16.305-21.239-12.924-24.744 3.39-3.513 21.68 8.652 25.185 12.041M235.5 290.576c-3.39 3.505-8.978 3.602-12.482.221-3.505-3.39-3.602-8.978-.221-12.482 3.39-3.513 21.239-16.305 24.744-12.924 3.513 3.39-8.652 21.68-12.041 25.185M222.424 234.5c-3.505-3.39-3.602-8.978-.221-12.482 3.39-3.505 8.978-3.602 12.482-.221 3.513 3.39 16.305 21.239 12.924 24.744-3.39 3.513-21.68-8.652-25.185-12.041M278.5 221.424c3.39-3.505 8.978-3.602 12.482-.221 3.505 3.39 3.602 8.978.221 12.482-3.39 3.513-21.239 16.305-24.744 12.924-3.513-3.39 8.652-21.68 12.041-25.185M447.892 238.345H342.244c-15.722 0-23.605-19.015-12.482-30.137l74.664-74.664c7.68-7.68 20.612-6.815 26.792 2.11 16.79 24.223 28.646 52.092 34.136 82.167 1.959 10.716-6.569 20.524-17.462 20.524M274.655 170.753V65.104c0-10.884 9.807-19.412 20.524-17.461 30.076 5.5 57.944 17.355 82.167 34.136 8.925 6.188 9.79 19.112 2.11 26.792l-74.664 74.664c-11.122 11.123-30.137 3.249-30.137-12.482M209.206 183.238l-74.664-74.664c-7.68-7.68-6.815-20.612 2.11-26.792 24.223-16.781 52.1-28.637 82.167-34.136 10.717-1.951 20.524 6.568 20.524 17.461v105.649c0 15.73-19.015 23.605-30.137 12.482M239.345 341.247v105.649c0 10.884-9.807 19.412-20.524 17.452-30.076-5.491-57.944-17.346-82.167-34.127-8.925-6.188-9.825-19.085-2.145-26.765 18.361-18.353 50.776-50.776 74.726-74.717 11.113-11.123 30.11-3.223 30.11 12.508M304.794 328.762l74.664 74.664c7.68 7.68 6.815 20.612-2.11 26.792-24.223 16.781-52.1 28.637-82.167 34.136-10.717 1.951-20.524-6.568-20.524-17.461V341.244c0-15.73 19.015-23.604 30.137-12.482M109.543 133.512l74.717 74.717c11.123 11.123 3.222 30.12-12.509 30.12H66.111c-10.893 0-19.421-9.816-17.461-20.524 5.491-30.076 17.346-57.944 34.127-82.176 6.189-8.925 19.086-9.817 26.766-2.137M66.108 273.655h105.649c15.722 0 23.605 19.015 12.482 30.137l-74.664 74.664c-7.68 7.68-20.612 6.815-26.792-2.11-16.79-24.223-28.646-52.092-34.136-82.167-1.96-10.716 6.568-20.524 17.461-20.524M404.457 378.488l-74.717-74.717c-11.123-11.123-3.222-30.12 12.509-30.12h105.64c10.893 0 19.421 9.816 17.461 20.524-5.491 30.076-17.346 57.944-34.127 82.167-6.189 8.934-19.086 9.826-26.766 2.146" style="fill:#ed7161" transform="translate(-1)"/></svg>